<svg height="100%" viewBox="0 0 496 512" width="100%" fill="#181717" xmlns="http://www.w3.org/2000/svg">
<path d="M165.9 397.4c0 2-2.3 3.7-5.2 3.7-2.9.1-5.2-1.5-5.2-3.6 0-2 2.3-3.7 5.2-3.7 2.9-.1 5.2 1.5 5.2 3.6zm-31.8-3.2c-.7 2.1 1.6 4.3 5 4.9 3.3.6 7-.4 7.7-2.5.7-2.1-1.6-4.3-5-4.9-3.4-.6-7 .4-7.7 2.5zm44.2-1.7c-2.9.8-4.8 2.9-4.3 5.4.4 2.5 3.2 3.9 6.2 3.1 3-.9 4.9-3 4.3-5.5-.5-2.5-3.3-3.9-6.2-3zm59.3-3.7c-1.1 2.6 1.3 5.4 5.5 6.2 4.2.8 8.7-.6 9.8-3.2 1.1-2.6-1.3-5.4-5.5-6.2-4.2-.8-8.7.6-9.8 3.2zm-38.7-2.6c-2.9 1.1-3.9 3.6-2.3 5.6 1.6 2 5.1 2.5 8 .9 2.9-1.1 3.9-3.6 2.3-5.6-1.7-2-5.2-2.5-8-.9zm-46.2-1.2c-.6 2.3 2.4 4.7 6.7 5.3 4.3.6 8.8-.7 9.5-3 .6-2.3-2.4-4.7-6.7-5.3-4.4-.6-8.9.7-9.5 3zm-31.1-1.6c-.9 2.1 1.7 4.5 5.7 5.3 4 .8 8.2-.2 9.1-2.3.9-2.1-1.7-4.5-5.7-5.3-4-.8-8.2.2-9.1 2.3zm222.3 36.5V320c0-12.4-11.5-22.5-25.6-22.5H304v-47c0-9.8-8.2-17.8-18.4-17.8h-75.2c-10.2 0-18.4 8-18.4 17.8v47h-48.7c-14.1 0-25.6 10.1-25.6 22.5v108.1c0 10.2 10.9 18.5 24.2 18.5h235.1c13.3 0 24.2-8.3 24.2-18.5z"/>
</svg>
